<mxfile host="Electron" modified="2023-06-04T13:08:42.232Z" agent="Mozilla/5.0 (Windows NT 10.0; Win64; x64) AppleWebKit/537.36 (KHTML, like Gecko) draw.io/21.2.1 Chrome/112.0.5615.87 Electron/24.1.2 Safari/537.36" etag="fPC2xntygoKJU8JTOWLk" version="21.2.1" type="device">
  <diagram name="第 1 页" id="LU1XM8eelfFim8gevOEw">
    <mxGraphModel dx="911" dy="592" grid="1" gridSize="10" guides="1" tooltips="1" connect="1" arrows="1" fold="1" page="1" pageScale="1" pageWidth="827" pageHeight="1169" math="0" shadow="0">
      <root>
        <mxCell id="0" />
        <mxCell id="1" parent="0" />
        <mxCell id="5PTIw-uYRAdiezTDEF-a-6" style="edgeStyle=orthogonalEdgeStyle;rounded=0;orthogonalLoop=1;jettySize=auto;html=1;entryX=0;entryY=0.5;entryDx=0;entryDy=0;strokeWidth=3;shadow=1;sketch=1;curveFitting=1;jiggle=2;strokeColor=#0066CC;" edge="1" parent="1" source="5PTIw-uYRAdiezTDEF-a-1" target="5PTIw-uYRAdiezTDEF-a-2">
          <mxGeometry relative="1" as="geometry" />
        </mxCell>
        <mxCell id="5PTIw-uYRAdiezTDEF-a-1" value="&lt;b&gt;&lt;font style=&quot;font-size: 18px;&quot;&gt;宏任务&lt;/font&gt;&lt;/b&gt;" style="rounded=0;whiteSpace=wrap;html=1;fillColor=#dae8fc;strokeColor=#6c8ebf;sketch=1;curveFitting=1;jiggle=2;shadow=1;" vertex="1" parent="1">
          <mxGeometry x="160" y="200" width="100" height="50" as="geometry" />
        </mxCell>
        <mxCell id="5PTIw-uYRAdiezTDEF-a-7" style="edgeStyle=orthogonalEdgeStyle;rounded=0;orthogonalLoop=1;jettySize=auto;html=1;strokeWidth=3;strokeColor=#0066CC;shadow=1;sketch=1;curveFitting=1;jiggle=2;" edge="1" parent="1" source="5PTIw-uYRAdiezTDEF-a-2" target="5PTIw-uYRAdiezTDEF-a-3">
          <mxGeometry relative="1" as="geometry">
            <Array as="points">
              <mxPoint x="460" y="225" />
              <mxPoint x="460" y="225" />
            </Array>
          </mxGeometry>
        </mxCell>
        <mxCell id="5PTIw-uYRAdiezTDEF-a-8" value="" style="edgeStyle=orthogonalEdgeStyle;rounded=0;orthogonalLoop=1;jettySize=auto;html=1;" edge="1" parent="1" source="5PTIw-uYRAdiezTDEF-a-2" target="5PTIw-uYRAdiezTDEF-a-3">
          <mxGeometry relative="1" as="geometry" />
        </mxCell>
        <mxCell id="5PTIw-uYRAdiezTDEF-a-2" value="&lt;b&gt;&lt;font style=&quot;font-size: 18px;&quot;&gt;执行结束&lt;/font&gt;&lt;/b&gt;" style="rounded=0;whiteSpace=wrap;html=1;fillColor=#dae8fc;strokeColor=#6c8ebf;sketch=1;curveFitting=1;jiggle=2;shadow=1;" vertex="1" parent="1">
          <mxGeometry x="320" y="200" width="100" height="50" as="geometry" />
        </mxCell>
        <mxCell id="5PTIw-uYRAdiezTDEF-a-9" style="edgeStyle=orthogonalEdgeStyle;rounded=0;orthogonalLoop=1;jettySize=auto;html=1;entryX=0;entryY=0.5;entryDx=0;entryDy=0;strokeWidth=3;strokeColor=#0066CC;shadow=1;sketch=1;curveFitting=1;jiggle=2;" edge="1" parent="1" source="5PTIw-uYRAdiezTDEF-a-3" target="5PTIw-uYRAdiezTDEF-a-4">
          <mxGeometry relative="1" as="geometry" />
        </mxCell>
        <mxCell id="5PTIw-uYRAdiezTDEF-a-11" style="edgeStyle=orthogonalEdgeStyle;rounded=0;orthogonalLoop=1;jettySize=auto;html=1;entryX=0.5;entryY=0;entryDx=0;entryDy=0;exitX=0.5;exitY=0;exitDx=0;exitDy=0;strokeWidth=3;shadow=1;sketch=1;curveFitting=1;jiggle=2;strokeColor=#0066CC;" edge="1" parent="1" source="5PTIw-uYRAdiezTDEF-a-3" target="5PTIw-uYRAdiezTDEF-a-5">
          <mxGeometry relative="1" as="geometry" />
        </mxCell>
        <mxCell id="5PTIw-uYRAdiezTDEF-a-12" value="&lt;font style=&quot;font-size: 20px;&quot;&gt;&lt;b&gt;无&lt;/b&gt;&lt;/font&gt;" style="edgeLabel;html=1;align=center;verticalAlign=middle;resizable=0;points=[];" vertex="1" connectable="0" parent="5PTIw-uYRAdiezTDEF-a-11">
          <mxGeometry x="0.002" y="-1" relative="1" as="geometry">
            <mxPoint y="-3" as="offset" />
          </mxGeometry>
        </mxCell>
        <mxCell id="5PTIw-uYRAdiezTDEF-a-3" value="&lt;b&gt;&lt;font style=&quot;font-size: 18px;&quot;&gt;有微任务？&lt;/font&gt;&lt;/b&gt;" style="rhombus;whiteSpace=wrap;html=1;fillColor=#ffe6cc;strokeColor=#d79b00;sketch=1;curveFitting=1;jiggle=2;shadow=1;" vertex="1" parent="1">
          <mxGeometry x="470" y="182.5" width="140" height="85" as="geometry" />
        </mxCell>
        <mxCell id="5PTIw-uYRAdiezTDEF-a-10" style="edgeStyle=orthogonalEdgeStyle;rounded=0;orthogonalLoop=1;jettySize=auto;html=1;entryX=0;entryY=0.5;entryDx=0;entryDy=0;strokeWidth=3;strokeColor=#0066CC;shadow=1;sketch=1;curveFitting=1;jiggle=2;" edge="1" parent="1" source="5PTIw-uYRAdiezTDEF-a-4" target="5PTIw-uYRAdiezTDEF-a-5">
          <mxGeometry relative="1" as="geometry" />
        </mxCell>
        <mxCell id="5PTIw-uYRAdiezTDEF-a-4" value="&lt;b&gt;&lt;font style=&quot;font-size: 18px;&quot;&gt;执行所有微任务&lt;/font&gt;&lt;/b&gt;" style="rounded=0;whiteSpace=wrap;html=1;fillColor=#d5e8d4;strokeColor=#82b366;sketch=1;curveFitting=1;jiggle=2;shadow=1;" vertex="1" parent="1">
          <mxGeometry x="667" y="200" width="160" height="50" as="geometry" />
        </mxCell>
        <mxCell id="5PTIw-uYRAdiezTDEF-a-13" style="edgeStyle=orthogonalEdgeStyle;rounded=0;orthogonalLoop=1;jettySize=auto;html=1;entryX=0.428;entryY=0.995;entryDx=0;entryDy=0;entryPerimeter=0;exitX=0.557;exitY=1.038;exitDx=0;exitDy=0;exitPerimeter=0;strokeWidth=3;strokeColor=#0066CC;shadow=1;sketch=1;curveFitting=1;jiggle=2;" edge="1" parent="1" source="5PTIw-uYRAdiezTDEF-a-5" target="5PTIw-uYRAdiezTDEF-a-1">
          <mxGeometry relative="1" as="geometry">
            <Array as="points">
              <mxPoint x="964" y="290" />
              <mxPoint x="203" y="290" />
            </Array>
          </mxGeometry>
        </mxCell>
        <mxCell id="5PTIw-uYRAdiezTDEF-a-5" value="&lt;b&gt;&lt;font style=&quot;font-size: 18px;&quot;&gt;执行下一个宏任务&lt;/font&gt;&lt;/b&gt;" style="rounded=0;whiteSpace=wrap;html=1;fillColor=#dae8fc;strokeColor=#6c8ebf;sketch=1;curveFitting=1;jiggle=2;shadow=1;" vertex="1" parent="1">
          <mxGeometry x="880" y="200" width="150" height="50" as="geometry" />
        </mxCell>
      </root>
    </mxGraphModel>
  </diagram>
</mxfile>
